# xmcd CD database file
#
# Track frame offsets:
#	150
#	23782
#	46382
#	69940
#
# Disc length: 1230 seconds
#
# Revision: 1
# Processed by: cddbd v1.5.1PL2 Copyright (c) Steve Scherf et al.
# Submitted via: CDex 1.60beta1-cs1
#
DISCID=2a04cc04
DTITLE=水野あおい - 夏の恋人
DYEAR=1997
DGENRE=JPop
TTITLE0=夏の恋人
TTITLE1=SUNSHINE SUNDAY
TTITLE2=夏の恋人 (オリジナル・カラオケ)
TTITLE3=SUNSHINE SUNDAY (オリジナル・カラオケ)
EXTD=YEAR: 1997
EXTT0=
EXTT1=
EXTT2=
EXTT3=
PLAYORDER=
